<?xml version="1.0" encoding="iso-8859-1"?>
<!-- Generator: Adobe Illustrator 19.0.0, SVG Export Plug-In . SVG Version: 6.00 Build 0)  -->
<svg version="1.1" id="Layer_1" xmlns="http://www.w3.org/2000/svg" xmlns:xlink="http://www.w3.org/1999/xlink" x="0px" y="0px"
	 viewBox="0 0 512 512" style="enable-background:new 0 0 512 512;" xml:space="preserve">
<g>
	<g>
		<path d="M437.02,74.98C388.667,26.629,324.38,0,255.999,0c-49.149,0-96.898,13.969-138.081,40.397
			c-3.944,2.531-5.089,7.779-2.559,11.724c2.531,3.945,7.781,5.09,11.724,2.558c38.444-24.67,83.023-37.709,128.916-37.709
			c131.801,0,239.029,107.228,239.029,239.029c0,42.668-11.378,84.542-32.905,121.097c-20.903,35.496-50.788,65.178-86.424,85.839
			c-4.054,2.35-5.436,7.543-3.085,11.597c1.575,2.714,4.424,4.23,7.351,4.23c1.444,0,2.909-0.37,4.248-1.146
			c38.157-22.121,70.155-53.902,92.535-91.909C499.811,346.546,512,301.694,512,255.999C512,187.62,485.372,123.332,437.02,74.98z"
			/>
	</g>
</g>
<g>
	<g>
		<path d="M355.202,482.986c-1.731-4.355-6.665-6.484-11.019-4.754c-28.064,11.146-57.733,16.798-88.184,16.798
			c-131.801,0-239.029-107.228-239.029-239.03c0-69.849,30.449-136.016,83.541-181.534c3.558-3.05,3.969-8.407,0.919-11.965
			c-3.049-3.557-8.407-3.969-11.964-0.919C32.609,110.329,0,181.192,0,255.999c0,68.379,26.628,132.668,74.98,181.02
			C123.333,485.371,187.62,512,255.999,512c32.605,0,64.382-6.055,94.449-17.996C354.804,492.274,356.931,487.342,355.202,482.986z"
			/>
	</g>
</g>
<g>
	<g>
		<path d="M393.848,119.96c-0.251-0.341-0.52-0.671-0.828-0.979c-0.308-0.308-0.638-0.578-0.979-0.828
			c-35.014-34.559-83.076-55.927-136.042-55.927s-101.028,21.368-136.042,55.927c-0.341,0.25-0.671,0.519-0.979,0.827
			s-0.578,0.639-0.828,0.979c-34.557,35.014-55.925,83.076-55.925,136.04c0,52.964,21.368,101.026,55.926,136.04
			c0.25,0.341,0.52,0.671,0.828,0.979s0.639,0.578,0.979,0.828c35.014,34.558,83.075,55.926,136.04,55.926
			s101.028-21.368,136.042-55.927c0.341-0.25,0.671-0.519,0.979-0.827s0.578-0.638,0.828-0.979
			c34.558-35.013,55.926-83.075,55.926-136.04S428.406,154.973,393.848,119.96z M386.82,374.817l-28.874-28.874
			c-3.315-3.314-8.687-3.314-12.001,0c-3.316,3.314-3.316,8.687-0.002,12.001l28.875,28.874
			c-29.459,26.78-67.968,43.766-110.332,45.778v-40.912c0-4.686-3.798-8.485-8.485-8.485c-4.687,0-8.485,3.799-8.485,8.485v40.912
			c-42.365-2.012-80.873-18.998-110.332-45.778l28.875-28.874c3.314-3.314,3.314-8.687,0-11.999c-3.314-3.314-8.686-3.314-12.001,0
			l-28.874,28.874c-26.78-29.459-43.766-67.968-45.778-110.332h40.911c4.687,0,8.485-3.799,8.485-8.485
			c0-4.686-3.798-8.485-8.485-8.485H79.406c2.012-42.365,18.998-80.873,45.778-110.332l28.874,28.874
			c1.657,1.656,3.83,2.486,6.001,2.486c2.171,0,4.343-0.828,6.001-2.486c3.314-3.314,3.314-8.687,0-11.999l-28.875-28.874
			c29.459-26.78,67.968-43.766,110.332-45.778v40.912c0,4.686,3.798,8.485,8.485,8.485s8.485-3.799,8.485-8.485V79.405
			c42.365,2.012,80.873,18.998,110.332,45.778l-28.875,28.874c-3.314,3.314-3.314,8.687,0,11.999
			c1.657,1.657,3.829,2.486,6.001,2.486c2.171,0,4.343-0.828,6.001-2.486l28.874-28.874c26.78,29.459,43.766,67.968,45.778,110.332
			h-40.911c-4.687,0-8.485,3.799-8.485,8.485s3.798,8.485,8.485,8.485h40.911C430.586,306.849,413.599,345.358,386.82,374.817z"/>
	</g>
</g>
<g>
	<g>
		<path d="M319.865,283.864l-38.408-38.408v-74.885c0-14.037-11.419-25.456-25.456-25.456c-14.037,0-25.456,11.419-25.456,25.456
			v85.429c0,6.801,2.647,13.193,7.456,18l45.864,45.864c4.808,4.808,11.201,7.456,18,7.456c6.8,0,13.192-2.649,17.999-7.456
			c4.81-4.807,7.457-11.2,7.457-18C327.32,295.064,324.673,288.671,319.865,283.864z M307.864,307.865
			c-1.602,1.603-3.734,2.486-6,2.486s-4.397-0.883-6-2.486L250,262c-1.602-1.602-2.484-3.734-2.484-6v-85.429
			c0-4.679,3.806-8.485,8.485-8.485c4.678,0,8.485,3.806,8.485,8.486v81.914l43.379,43.379c1.602,1.603,2.484,3.734,2.484,6
			S309.467,306.262,307.864,307.865z"/>
	</g>
</g>
<g>
</g>
<g>
</g>
<g>
</g>
<g>
</g>
<g>
</g>
<g>
</g>
<g>
</g>
<g>
</g>
<g>
</g>
<g>
</g>
<g>
</g>
<g>
</g>
<g>
</g>
<g>
</g>
<g>
</g>
</svg>
